<svg xmlns="http://www.w3.org/2000/svg"  viewBox="0 0 48 48" width="48px" height="48px" clip-rule="evenodd" baseProfile="basic"><path fill="#efad60" d="M20.998,35.002v8.999h8.001v-8.999H20.998z"/><path fill="#424242" d="M25.999,35.001v9l3.984-0.624	c0.672-0.305,1.344-0.72,2.016-1.376l0.976-1.243l1.579-4.125l-4.185-4.763L25.999,35.001z"/><path fill="#a07416" d="M35.999,27.001c3.961,4.612,7,10.603,7,16	c-1.899-0.059-5.896-1.351-8-4c-0.607,1.295-1.804,2.148-3,3c0.439-1.305,1-2.627,1-4c0-1.513-0.763-2.513-2-4l-0.381-5.221	L35.999,27.001z"/><path fill-rule="evenodd" d="M14.998,32.002v6.999h7.001v-6.999	H14.998z" clip-rule="evenodd"/><path fill="#ffb74d" d="M33.999,30.001c-1.584,3.968-5.429,7-10,7	c-2.687,0-5.389-1.789-7-4l0.099-6.941l6.92-7.92l11.48,3.44L33.999,30.001z"/><path fill="#784719" d="M18.997,27.502c0-1.38,1.121-2.501,2.501-2.501	c1.38,0,2.501,1.121,2.501,2.501c0,0.172-0.017,0.339-0.051,0.5h-1.22c-0.345-0.597-0.992-1-1.731-1	c-0.856,0-1.588,0.539-1.873,1.297C19.042,28.047,18.997,27.781,18.997,27.502z"/><path fill="#424242" d="M15.837,35.662c4.056,1.239,7.655,1.997,10.175,4.976	l-2.012,5.363c-2.333-0.563-4.667-1.153-7-2l-2.631-2.871l0.14-4.42L15.837,35.662z"/><path fill="#a07416" d="M38.999,23.001c-0.343,4.332-2.815,6.883-7,8	c0.987-1.341,1-4,1-7c-2,0-3,0-5-2c-0.36,1.449-1.965,3.177-4,5v-5c-1.441,2.023-3.101,3.7-5,5c0,5.484-3,8.948-3,14	c0,1.053,0.469,2,1,3c-1.528-0.199-2.884-0.812-4-2c-2.711,1.241-4.545,3.008-6,5c-3.635-1.301-6-3.176-6-6	c0-3.244,5.468-8.367,9-12l3.473-8.527l10.4-9.149l10.451-0.1l6.149,7.849L38.999,23.001z"/><path fill="#424242" d="M-0.001,28.001c0-2.189,4.368-7.412,8-10v-5	c-2.176,0-3.604-0.436-5-1c4.713-4.536,8.619-12,15-12c3.245,0,6.029,3.331,8.109,5.392c2.179-0.895,4.48-1.392,6.891-1.392	c6,0,11,5.816,11,11c0,3-2.203,6.189-5,8c0-4.199-4-9-12-9c-12,0-12,17-21,17C2.761,31.001-0.001,29.745-0.001,28.001z"/><path fill-rule="evenodd" d="M7.998,18.002v-4.001h7.231	c-1.029,1.261-2,2.603-2.912,4.001H7.998z" clip-rule="evenodd"/><path fill="#90caf9" fill-rule="evenodd" d="M22.999,6.501	c0-1.103,0.22-1.5,1.5-1.5c0.479,0,0.905,0.225,1.179,0.575c-0.892,0.392-1.764,0.849-2.613,1.367	C23.022,6.803,22.999,6.655,22.999,6.501z" clip-rule="evenodd"/><path fill="#eceff1" d="M22.995,31.501c0-0.171,0.017-0.337,0.051-0.5h4.891	c0.033,0.163,0.052,0.329,0.052,0.5c0,0.172-0.017,0.339-0.051,0.5l-2.384,0.741l-2.509-0.741	C23.011,31.839,22.995,31.673,22.995,31.501z"/><path fill="red" fill-rule="evenodd" d="M23.045,32.001h4.893	c-0.232,1.141-1.241,2-2.445,2C24.286,34.001,23.277,33.142,23.045,32.001z" clip-rule="evenodd"/><path fill="#784719" d="M27.998,27.501c0-1.38,1.121-2.501,2.501-2.501	c1.38,0,2.501,1.121,2.501,2.501c0,0.172-0.017,0.339-0.051,0.5h-1.22c-0.345-0.597-0.992-1-1.731-1	c-0.856,0-1.588,0.539-1.873,1.297C28.043,28.046,27.998,27.779,27.998,27.501z"/><path fill="#ffca28" d="M28.471,48.001l-0.473-2.712l2.001-1.92l-2.765-0.395	l-1.235-2.468l-1.236,2.468l-2.764,0.395l1.999,1.92l-0.471,2.712l2.471-1.28L28.471,48.001z"/><path fill="#90caf9" fill-rule="evenodd" d="M19.999,7.001	c0-1.007-1.059-2-2-2c-1.455,0-2.705,0.965-4,2c1.925,0.325,2.627,1,4,1C18.762,8.001,19.999,7.745,19.999,7.001z" clip-rule="evenodd"/><path d="M11.369,19.471c-0.463-0.3-0.595-0.92-0.295-1.383	c2.964-4.535,6.155-8.445,10.971-11.109c0.883-0.488,1.875-0.917,2.835-1.229c0.408-0.133,0.823-0.232,1.228-0.36	c-1.213,0.795-2.331,1.525-3.468,2.436c-3.881,3.108-7.231,7.165-9.888,11.351C12.451,19.639,11.831,19.771,11.369,19.471z"/></svg>